<svg width="101" height="95" viewBox="0 0 101 95" fill="none" xmlns="http://www.w3.org/2000/svg">
<path fill-rule="evenodd" clip-rule="evenodd" d="M24.0011 4.99387C20.9586 4.99387 18.8922 8.09181 20.0555 10.9091L28.5379 31.452C29.8141 34.5429 29.1074 38.0998 26.7472 40.4651L6.236 61.0202C4.56845 62.6913 4.56845 65.4007 6.236 67.0718L27.8707 88.7528C28.6715 89.5553 29.7576 90.0061 30.8901 90.0061H70.11C71.2424 90.0061 72.3285 89.5553 73.1293 88.7528L94.764 67.0718C96.4316 65.4007 96.4316 62.6913 94.764 61.0202L74.1583 40.3705C71.8613 38.0685 71.1249 34.6304 72.277 31.5865L80.1483 10.7906C81.208 7.99069 79.144 4.99387 76.1558 4.99387H24.0011ZM16.373 12.4362C14.1239 6.98936 18.1189 1 24.0011 1H76.1558C81.933 1 85.9235 6.79387 83.8746 12.2071L76.0033 33.0029C75.4074 34.5774 75.7883 36.3557 76.9764 37.5464L97.5821 58.1961C100.806 61.4269 100.806 66.6651 97.5821 69.8959L75.9474 91.5769C74.3992 93.1284 72.2994 94 70.11 94H30.8901C28.7006 94 26.6008 93.1284 25.0526 91.5769L3.41794 69.8959C0.194022 66.6651 0.194022 61.4269 3.41794 58.1961L23.9291 37.641C25.15 36.4176 25.5155 34.5778 24.8553 32.9791L16.373 12.4362Z" fill="black" stroke="black" stroke-width="2" stroke-linecap="round"/>
<path d="M21 17.5C21 16.5899 21.6587 16 22.2963 16H79.7037C80.3413 16 81 16.5899 81 17.5C81 18.4101 80.3413 19 79.7037 19H22.2963C21.6587 19 21 18.4101 21 17.5Z" fill="black" stroke="black" stroke-width="2"/>
<path d="M5 64.5C5 63.5824 5.65771 63 6.27879 63H95.7212C96.3423 63 97 63.5824 97 64.5C97 65.4176 96.3423 66 95.7212 66H6.27879C5.65771 66 5 65.4176 5 64.5Z" fill="black" stroke="black" stroke-width="2"/>
</svg>
