<svg width="92" height="92" viewBox="0 0 92 92" fill="none" xmlns="http://www.w3.org/2000/svg">
<rect x="3" y="3" width="86" height="86" rx="7" stroke="black" stroke-width="6"/>
<path d="M41.9755 8.24143L43.0444 6.76143C44.3604 4.93924 46.4714 3.85986 48.7191 3.85986H82C85.866 3.85986 89 6.99387 89 10.8599V15.0136C89 17.665 87.5019 20.0889 85.1305 21.2746L67.8417 29.919C64.1287 31.7755 59.76 29.0755 59.76 24.9242C59.76 21.8401 57.2598 19.3399 54.1756 19.3399H47.6503C41.9399 19.3399 38.6321 12.8707 41.9755 8.24143Z" stroke="black" stroke-width="6"/>
<path d="M10.994 71.325L6.94308 74.6164C4.59142 76.5271 3.73608 79.734 4.82381 82.562L5.57417 84.513C6.61392 87.2163 9.21119 89.0001 12.1076 89.0001H37.8455C43.113 89.0001 46.4932 83.4013 44.0399 78.7399L43.4564 77.6314C41.9278 74.727 38.5866 73.2747 35.4202 74.1383L26.6319 76.5351C23.9122 77.2768 21.0547 75.9452 19.8733 73.3857C18.295 69.966 13.9171 68.95 10.994 71.325Z" stroke="black" stroke-width="6"/>
</svg>
