<svg width="101" height="97" viewBox="0 0 101 97" fill="none" xmlns="http://www.w3.org/2000/svg">
<path d="M34.2363 11.0875L6.48542 3.26445C4.3851 2.67236 2.37545 4.44945 2.70608 6.60644L14.4472 83.2059C14.5998 84.2013 15.2416 85.0537 16.156 85.4755L34.0375 93.7241C34.4315 93.9059 34.8602 94 35.2941 94H70.0698C70.6113 94 71.1427 93.8535 71.6076 93.5759L85.0949 85.5244C85.8634 85.0657 86.3869 84.2877 86.5225 83.403L98.2606 6.82403C98.5994 4.61338 96.4873 2.82258 94.3618 3.51839L71.352 11.0511C71.0507 11.1497 70.7357 11.2 70.4186 11.2H35.0503C34.7751 11.2 34.5012 11.1621 34.2363 11.0875Z" stroke="black" stroke-width="5"/>
<path d="M3 5L25.8531 30.6416C29.4582 34.6866 34.6188 37 40.0372 37H61.561C67.5521 37 73.1922 34.1743 76.7792 29.3756L95 5" stroke="black" stroke-width="5"/>
</svg>
