<svg width="130" height="67" viewBox="0 0 130 67" fill="none" xmlns="http://www.w3.org/2000/svg">
<path d="M9.19239 24.3076L22.3076 11.1924C27.3844 6.11557 35.6156 6.11557 40.6924 11.1924L53.8076 24.3076C58.8844 29.3844 58.8844 37.6156 53.8076 42.6924L40.6924 55.8076C35.6156 60.8844 27.3844 60.8844 22.3076 55.8076L9.19239 42.6924C4.11557 37.6156 4.11557 29.3844 9.19239 24.3076Z" stroke="black" stroke-width="6"/>
<path d="M39.25 25.75C43.5302 30.0302 43.5302 36.9698 39.25 41.25C34.9698 45.5302 28.0302 45.5302 23.75 41.25C19.4698 36.9698 19.4698 30.0302 23.75 25.75C28.0302 21.4698 34.9698 21.4698 39.25 25.75Z" stroke="black" stroke-width="6"/>
<path d="M30 3L125.773 21.3807C126.743 21.5669 126.884 22.8975 125.975 23.2833L30 64" stroke="black" stroke-width="5"/>
</svg>
