<svg width="107" height="89" viewBox="0 0 107 89" fill="none" xmlns="http://www.w3.org/2000/svg">
<path d="M29.2748 58.0985L6.5713 80.5125C4.5031 82.5543 6.25612 86.0498 9.12944 85.6134L47.3505 79.8082C47.4996 79.7856 47.6502 79.7742 47.801 79.7742H78.131C79.5248 79.7742 80.735 78.8142 81.0523 77.457L85.5236 58.3284C85.8098 57.104 85.302 55.8309 84.2517 55.1396L48.3251 31.4941C47.8354 31.1718 47.262 31 46.6758 31H18.6819C16.2334 31 14.8161 33.7748 16.2514 35.7585L29.5977 54.2051C30.4657 55.4048 30.3285 57.0582 29.2748 58.0985Z" stroke="black" stroke-width="6"/>
<path d="M97 8L74.5109 38.8774" stroke="black" stroke-width="6"/>
<path d="M89 3L103.784 13.2682" stroke="black" stroke-width="6" stroke-linecap="round"/>
<path d="M70.1279 37.512L73.593 36.8874C75.0917 36.6172 76.555 37.5127 76.9964 38.9702L78.1591 42.8091C78.9834 45.5305 75.912 47.7648 73.5766 46.1427L68.9487 42.9284C66.7535 41.4037 67.4975 37.9861 70.1279 37.512Z" stroke="black" stroke-width="4"/>
</svg>
