<svg width="87" height="74" viewBox="0 0 87 74" fill="none" xmlns="http://www.w3.org/2000/svg">
<rect x="27.7328" y="18.3456" width="12.6626" height="12.6626" rx="4" transform="rotate(0.734744 27.7328 18.3456)" stroke="black" stroke-width="4"/>
<rect x="49.8715" y="40.4853" width="12.6626" height="12.6626" rx="4" transform="rotate(0.734744 49.8715 40.4853)" stroke="black" stroke-width="4"/>
<path d="M56.0502 20.294L28.0098 50.0923L30.8156 53.0712L58.856 23.2729L56.0502 20.294ZM85.8658 24.5026V8.71586C85.8658 4.45525 82.4106 1 78.1499 1H8.71586C4.45525 1.00866 1 4.45525 1 8.71586V24.494C6.52494 25.8016 10.647 30.755 10.647 36.6783C10.647 42.6016 6.52494 47.555 1 48.8626V64.658C1 68.9186 4.45525 72.3739 8.71586 72.3739H78.1499C82.4106 72.3739 85.8658 68.9186 85.8658 64.658V48.8712C80.3409 47.5636 76.2188 42.6102 76.2188 36.6869C76.2188 30.7637 80.3409 25.8103 85.8658 24.5026ZM72.3652 36.6869C72.3652 43.329 76.3227 49.0444 82.0122 51.6164V64.658C82.0122 66.7883 80.2803 68.5116 78.1586 68.5116H8.71586C6.58556 68.5116 4.86226 66.7797 4.86226 64.658V51.6164C10.5431 49.0444 14.5093 43.329 14.5093 36.6869C14.5093 30.0449 10.5517 24.3294 4.86226 21.7575V8.71586C4.86226 6.58556 6.59421 4.86226 8.71586 4.86226H78.1499C80.2803 4.86226 82.0035 6.59422 82.0035 8.71586V21.7575C76.3227 24.3294 72.3652 30.0449 72.3652 36.6869Z" fill="black" stroke="black" stroke-width="2"/>
</svg>
