<svg width="84" height="91" viewBox="0 0 84 91" fill="none" xmlns="http://www.w3.org/2000/svg">
<path d="M39.3995 66.2578L23.6665 86.1113C22.3935 87.7178 19.8155 86.5974 20.1214 84.5706L22.5776 68.2986C22.7837 66.9332 21.5721 65.751 20.1972 65.8798C18.1716 66.0694 15.4584 66.1403 13.5 65.5C9.39096 64.1565 5.43571 58.6457 4.31444 56.9794C4.10479 56.6679 4 56.3008 4 55.9253V13.8603C4 13.3111 4.22583 12.7861 4.62451 12.4084L12.9215 4.54809C13.2929 4.19615 13.7852 4 14.2969 4H68.7602C69.2376 4 69.6992 4.17078 70.0617 4.48149L79.3016 12.4014C79.7449 12.7813 80 13.336 80 13.9199V56.387C80 56.4623 80.0042 56.5356 80.0093 56.6107C80.0799 57.64 80.2662 65.5 69.5 65.5H40.9567C40.3459 65.5 39.7788 65.7791 39.3995 66.2578Z" stroke="black" stroke-width="7"/>
</svg>
