<svg width="81" height="119" viewBox="0 0 81 119" fill="none" xmlns="http://www.w3.org/2000/svg">
<path d="M6.36396 34.136L34.136 6.36396C37.6508 2.84924 43.3492 2.84924 46.864 6.36396L74.636 34.136C78.1508 37.6508 78.1508 43.3492 74.636 46.864L46.864 74.636C43.3492 78.1508 37.6508 78.1508 34.136 74.636L6.36396 46.864C2.84924 43.3492 2.84924 37.6508 6.36396 34.136Z" stroke="black" stroke-width="6"/>
<path d="M29.7782 92.7218L32.7218 89.7782C37.0176 85.4824 43.9824 85.4824 48.2782 89.7782L51.2218 92.7218C55.5176 97.0176 55.5176 103.982 51.2218 108.278L48.2782 111.222C43.9824 115.518 37.0176 115.518 32.7218 111.222L29.7782 108.278C25.4824 103.982 25.4824 97.0176 29.7782 92.7218Z" stroke="black" stroke-width="6"/>
<path d="M40 78L40 86" stroke="black" stroke-width="6"/>
</svg>
