<svg width="88" height="117" viewBox="0 0 88 117" fill="none" xmlns="http://www.w3.org/2000/svg">
<path d="M83.0078 10.9424L47.2846 59.9903" stroke="black" stroke-width="6"/>
<path d="M70.3003 3L93.7841 19.3108" stroke="black" stroke-width="6" stroke-linecap="round"/>
<path d="M36.1277 58.5777L47.3736 56.5506C48.8723 56.2805 50.3356 57.176 50.777 58.6334L54.5505 71.0923C55.3748 73.8137 52.3034 76.048 49.968 74.4259L34.9485 63.9941C32.7533 62.4694 33.4974 59.0518 36.1277 58.5777Z" stroke="black" stroke-width="4"/>
<rect x="3.5" y="14.5" width="51" height="99" rx="3.5" stroke="black" stroke-width="7"/>
<path d="M3 46L13.7006 37.5115C17.0484 34.8558 19 30.8166 19 26.5434V13" stroke="black" stroke-width="7"/>
<path d="M37 13V42.4125C37 46.9614 34.7899 51.2267 31.0736 53.85L24.1786 58.7171C23.2848 59.348 22.3202 59.8719 21.3045 60.2782L2 68" stroke="black" stroke-width="7"/>
<path d="M3 115L9.81612 103.564C11.3077 101.062 13.5428 99.0871 16.21 97.9151L33.0822 90.5014C34.5478 89.8574 35.8921 88.9669 37.0566 87.8684L56 70" stroke="black" stroke-width="7"/>
</svg>
