<svg width="84" height="93" viewBox="0 0 84 93" fill="none" xmlns="http://www.w3.org/2000/svg">
<path d="M38.3057 58.1302C38.4177 59.6983 39.7617 60.8183 41.3298 60.8183C41.4418 60.8183 41.5538 60.8183 41.6658 60.8183C43.3459 60.5943 44.4659 59.1382 44.3539 57.5702L43.0098 44.2417C42.7858 42.5616 41.3298 41.4416 39.7617 41.5536C38.0817 41.7776 36.9616 43.2337 37.0736 44.8017L38.3057 58.1302Z" fill="black"/>
<path d="M57.0108 60.8183C57.1228 60.8183 57.2348 60.8183 57.3468 60.8183C58.9149 60.8183 60.1469 59.6983 60.3709 58.1302L61.603 44.8017C61.827 43.1217 60.5949 41.6656 58.9149 41.5536C57.2348 41.4416 55.7788 42.5616 55.6668 44.2417L54.3227 57.5702C54.0987 59.1382 55.3308 60.5943 57.0108 60.8183Z" fill="black"/>
<path d="M33.8252 73.8105C28.673 73.8105 24.5288 77.9547 24.5288 83.1069C24.5288 88.2591 28.673 92.4032 33.8252 92.4032C38.9773 92.4032 43.1215 88.2591 43.1215 83.1069C43.1215 77.9547 38.9773 73.8105 33.8252 73.8105ZM33.8252 86.355C32.0331 86.355 30.577 84.8989 30.577 83.1069C30.577 81.3148 32.0331 79.8588 33.8252 79.8588C35.6172 79.8588 37.0733 81.3148 37.0733 83.1069C37.0733 84.7869 35.6172 86.355 33.8252 86.355Z" fill="black"/>
<path d="M64.7382 73.8105C59.586 73.8105 55.4419 77.9547 55.4419 83.1069C55.4419 88.2591 59.586 92.4032 64.7382 92.4032C69.8904 92.4032 74.0346 88.2591 74.0346 83.1069C73.9226 77.9547 69.7784 73.8105 64.7382 73.8105ZM64.7382 86.355C62.9462 86.355 61.4901 84.8989 61.4901 83.1069C61.4901 81.3148 62.9462 79.8588 64.7382 79.8588C66.5303 79.8588 67.9864 81.3148 67.9864 83.1069C67.9864 84.7869 66.5303 86.355 64.7382 86.355Z" fill="black"/>
<path d="M82.547 31.4729C81.987 30.6889 81.091 30.3529 80.1949 30.3529H20.6088L18.1447 20.7206C17.8087 19.3765 16.5766 18.4805 15.2326 18.4805H3.02411C1.34405 18.4805 0 19.8245 0 21.5046C0 23.1846 1.34405 24.5287 3.02411 24.5287H12.9925L15.4566 34.049V34.161L24.6409 69.6663C24.9769 71.0104 26.209 71.9064 27.553 71.9064H70.8986C72.2426 71.9064 73.4747 71.0104 73.8107 69.6663L83.107 34.049C83.331 33.153 83.107 32.257 82.547 31.4729ZM68.6585 65.9702H29.9051L22.1768 36.4011H76.3868L68.6585 65.9702Z" fill="black"/>
<path d="M37.5213 21.0563C38.0813 21.6163 38.8654 21.9523 39.6494 21.9523C40.4334 21.9523 41.2175 21.6163 41.7775 21.0563C42.8975 19.9362 42.8975 18.0322 41.7775 16.8001L32.3691 7.39179C31.2491 6.27175 29.345 6.27175 28.113 7.39179C26.9929 8.51183 26.9929 10.4159 28.113 11.6479L37.5213 21.0563Z" fill="black"/>
<path d="M58.9144 21.9523C59.6984 21.9523 60.4825 21.6163 61.0425 21.0563L70.4508 11.6479C71.5709 10.5279 71.5709 8.62383 70.4508 7.39179C69.3308 6.27175 67.4267 6.27175 66.1947 7.39179L56.7863 16.8001C55.6663 17.9202 55.6663 19.8242 56.7863 21.0563C57.3463 21.6163 58.1304 21.9523 58.9144 21.9523Z" fill="black"/>
<path d="M49.2814 19.2647C50.9615 19.2647 52.3055 17.9207 52.3055 16.2406V2.91211C52.3055 1.34405 50.9615 0 49.2814 0C47.6014 0 46.2573 1.34405 46.2573 3.02411V16.3526C46.2573 17.9207 47.6014 19.2647 49.2814 19.2647Z" fill="black"/>
</svg>
