<svg width="74" height="81" viewBox="0 0 74 81" fill="none" xmlns="http://www.w3.org/2000/svg">
<path d="M34.2715 50.6413C34.369 52.0073 35.5399 52.9831 36.906 52.9831C37.0036 52.9831 37.1011 52.9831 37.1987 52.9831C38.6624 52.788 39.6381 51.5195 39.5405 50.1534L38.3696 38.5419C38.1745 37.0783 36.906 36.1025 35.5399 36.2001C34.0763 36.3952 33.1005 37.6637 33.1981 39.0298L34.2715 50.6413Z" fill="white"/>
<path d="M50.5664 52.9831C50.664 52.9831 50.7616 52.9831 50.8591 52.9831C52.2252 52.9831 53.2985 52.0073 53.4937 50.6413L54.567 39.0298C54.7622 37.5661 53.6888 36.2976 52.2252 36.2001C50.7616 36.1025 49.4931 37.0783 49.3955 38.5419L48.2246 50.1534C48.0294 51.5195 49.1028 52.788 50.5664 52.9831Z" fill="white"/>
<path d="M30.3683 64.3027C25.8798 64.3027 22.2695 67.913 22.2695 72.4015C22.2695 76.89 25.8798 80.5003 30.3683 80.5003C34.8568 80.5003 38.4671 76.89 38.4671 72.4015C38.4671 67.913 34.8568 64.3027 30.3683 64.3027ZM30.3683 75.2312C28.8071 75.2312 27.5386 73.9627 27.5386 72.4015C27.5386 70.8403 28.8071 69.5718 30.3683 69.5718C31.9295 69.5718 33.198 70.8403 33.198 72.4015C33.198 73.8652 31.9295 75.2312 30.3683 75.2312Z" fill="white"/>
<path d="M57.299 64.3027C52.8105 64.3027 49.2002 67.913 49.2002 72.4015C49.2002 76.89 52.8105 80.5003 57.299 80.5003C61.7875 80.5003 65.3978 76.89 65.3978 72.4015C65.3002 67.913 61.6899 64.3027 57.299 64.3027ZM57.299 75.2312C55.7378 75.2312 54.4693 73.9627 54.4693 72.4015C54.4693 70.8403 55.7378 69.5718 57.299 69.5718C58.8602 69.5718 60.1287 70.8403 60.1287 72.4015C60.1287 73.8652 58.8602 75.2312 57.299 75.2312Z" fill="white"/>
<path d="M72.8137 27.4184C72.3259 26.7354 71.5452 26.4426 70.7646 26.4426H18.8543L16.7077 18.0511C16.4149 16.8802 15.3416 16.0996 14.1707 16.0996H3.53494C2.0713 16.0996 0.900391 17.2705 0.900391 18.7342C0.900391 20.1978 2.0713 21.3687 3.53494 21.3687H12.2192L14.3658 29.6626V29.7602L22.3671 60.6917C22.6598 61.8626 23.7331 62.6432 24.904 62.6432H62.6659C63.8368 62.6432 64.9101 61.8626 65.2028 60.6917L73.3016 29.6626C73.4968 28.882 73.3016 28.1014 72.8137 27.4184ZM60.7143 57.4717H26.9531L20.2204 31.7117H67.4471L60.7143 57.4717Z" fill="white"/>
<path d="M33.5883 18.3441C34.0762 18.8319 34.7592 19.1247 35.4423 19.1247C36.1253 19.1247 36.8083 18.8319 37.2962 18.3441C38.272 17.3683 38.272 15.7095 37.2962 14.6362L29.0999 6.43983C28.1241 5.46407 26.4653 5.46407 25.392 6.43983C24.4162 7.41558 24.4162 9.07437 25.392 10.1477L33.5883 18.3441Z" fill="white"/>
<path d="M52.2254 19.1247C52.9084 19.1247 53.5915 18.8319 54.0793 18.3441L62.2757 10.1477C63.2515 9.17195 63.2515 7.51316 62.2757 6.43983C61.3 5.46407 59.6412 5.46407 58.5678 6.43983L50.3715 14.6362C49.3957 15.6119 49.3957 17.2707 50.3715 18.3441C50.8593 18.8319 51.5424 19.1247 52.2254 19.1247Z" fill="white"/>
<path d="M43.8338 16.783C45.2974 16.783 46.4683 15.6121 46.4683 14.1485V2.53697C46.4683 1.17091 45.2974 0 43.8338 0C42.3701 0 41.1992 1.17091 41.1992 2.63455V14.2461C41.1992 15.6121 42.3701 16.783 43.8338 16.783Z" fill="white"/>
</svg>
