<svg width="85" height="81" viewBox="0 0 85 81" fill="none" xmlns="http://www.w3.org/2000/svg">
<path d="M83.2009 37.9637L74.9267 29.4167L76.5634 17.5965C76.7452 15.9599 75.7451 14.5051 74.1084 14.2323L62.3791 12.141L56.8327 1.68466C56.1053 0.229866 54.2868 -0.315683 52.832 0.411716L42.1029 5.59443L31.3737 0.320791C29.9189 -0.406607 28.1914 0.138942 27.3731 1.59374L21.8266 12.141L10.0973 14.2323C8.46068 14.5051 7.36959 16.0508 7.64236 17.5965L9.27901 29.4167L1.00485 37.9637C-0.0862511 39.1457 -0.0862511 40.9642 1.00485 42.1462L9.27901 50.6932L7.64236 62.5134C7.46051 64.15 8.46068 65.6048 10.0973 65.8776L21.8266 67.9689L27.464 78.5162C28.1914 79.971 30.0099 80.5165 31.4647 79.7891L42.1029 74.6064L52.832 79.88C53.2866 80.0619 53.7413 80.1528 54.105 80.1528C55.1961 80.1528 56.1962 79.6073 56.7418 78.5162L62.2882 67.9689L74.0175 65.8776C75.6541 65.6048 76.7452 64.0591 76.4725 62.5134L74.8358 50.6932L83.11 42.1462C84.3829 40.9642 84.3829 39.1457 83.2009 37.9637ZM69.5622 47.6017C68.9257 48.2382 68.6529 49.2384 68.7439 50.1476L70.1987 60.513L59.8332 62.3315C58.924 62.5134 58.1057 63.0589 57.742 63.8773L52.832 73.1516L43.3758 68.5144C42.9212 68.3326 42.4666 68.2417 42.012 68.2417C41.5573 68.2417 41.1027 68.3326 40.6481 68.5144L31.1919 73.1516L26.282 63.8773C25.8273 63.0589 25.0999 62.5134 24.1907 62.3315L13.8253 60.513L15.28 50.1476C15.371 49.2384 15.0982 48.3291 14.4617 47.6017L7.18774 40.055L14.4617 32.5082C15.0982 31.8717 15.371 30.8715 15.28 29.9623L13.8253 19.5969L24.1907 17.7784C25.0999 17.5965 25.9183 17.051 26.3729 16.2326L31.2828 6.9583L40.739 11.5955C41.5573 11.9592 42.5575 11.9592 43.3758 11.5955L52.832 6.9583L57.742 16.2326C58.1966 17.051 58.924 17.5965 59.8332 17.7784L70.1987 19.5969L68.7439 30.0532C68.6529 30.9625 68.9257 31.8717 69.5622 32.5991L76.8362 40.1459L69.5622 47.6017Z" fill="white"/>
<path d="M33.8286 38.1885C37.3292 38.1885 40.1933 35.3243 40.1933 31.8237C40.1933 28.3231 37.3292 25.459 33.8286 25.459C30.328 25.459 27.4639 28.3231 27.4639 31.8237C27.4639 35.3243 30.328 38.1885 33.8286 38.1885ZM33.8286 29.6756C35.022 29.6756 35.9767 30.6303 35.9767 31.8237C35.9767 33.0171 35.022 33.9718 33.8286 33.9718C32.6352 33.9718 31.6805 33.0171 31.6805 31.8237C31.6805 30.6303 32.6352 29.6756 33.8286 29.6756Z" fill="white"/>
<path d="M55.0483 27.8482C54.2591 27.0871 52.9176 27.0871 52.1284 27.8482L29.8741 49.3113C29.0849 50.0724 29.0849 51.3663 29.8741 52.1274C30.2687 52.508 30.8211 52.7363 31.3735 52.7363C31.9259 52.7363 32.4783 52.508 32.8729 52.1274L55.1272 30.6643C55.8375 29.9032 55.8375 28.6093 55.0483 27.8482Z" fill="white"/>
<path d="M50.1953 41.8252C46.6947 41.8252 43.8306 44.6893 43.8306 48.1899C43.8306 51.6905 46.6947 54.5547 50.1953 54.5547C53.6959 54.5547 56.56 51.6905 56.56 48.1899C56.56 44.6893 53.6959 41.8252 50.1953 41.8252ZM50.1953 50.338C49.0019 50.338 48.0472 49.3833 48.0472 48.1899C48.0472 46.9965 49.0019 46.0418 50.1953 46.0418C51.3887 46.0418 52.3434 46.9965 52.3434 48.1899C52.3434 49.3833 51.3887 50.338 50.1953 50.338Z" fill="white"/>
</svg>
