<svg width="73" height="73" viewBox="0 0 73 73" fill="none" xmlns="http://www.w3.org/2000/svg">
<path fill-rule="evenodd" clip-rule="evenodd" d="M59.7645 65.1468H12.2645C9.66447 65.1468 7.86447 62.6468 8.76447 60.3468C13.2645 49.6468 23.7645 43.4467 35.9645 43.4467C48.1645 43.4467 58.6645 49.5468 63.1645 60.3468C64.1645 62.6468 62.3645 65.1468 59.7645 65.1468ZM21.2645 21.7467C21.2645 13.7467 27.8645 7.24667 36.0645 7.24667C44.1645 7.24667 50.8645 13.7467 50.8645 21.7467C50.8645 29.7467 44.2645 36.2467 36.0645 36.2467C27.8645 36.2467 21.2645 29.7467 21.2645 21.7467ZM72.0645 63.8468C69.3645 51.7468 60.9645 42.7467 49.9645 38.6467C55.8645 34.0467 59.2645 26.5468 57.9645 18.3468C56.4645 8.84677 48.4645 1.24669 38.7645 0.146694C25.3645 -1.35331 13.9645 8.84667 13.9645 21.7467C13.9645 28.5467 17.1645 34.6467 22.2645 38.6467C11.1645 42.7467 2.86447 51.6468 0.164473 63.8468C-0.835527 68.2468 2.86447 72.4466 7.46447 72.4466H64.9645C69.3645 72.3466 73.0645 68.2468 72.0645 63.8468Z" fill="white"/>
</svg>
