<svg width="84" height="76" viewBox="0 0 84 76" fill="none" xmlns="http://www.w3.org/2000/svg">
<path d="M84 29.2079C84 27.411 83.7163 25.8033 83.2434 24.2902C83.2434 24.0065 83.2434 24.0065 82.9597 23.7228L75.8669 6.13273C74.5429 2.44449 71.1384 0.174805 66.9773 0.174805H17.4225C13.2615 0.174805 10.1406 2.25535 8.81665 5.94359L1.25103 23.9119C1.25103 23.9119 1.25103 24.1956 1.25103 24.4793C0.683613 25.9925 0.399902 27.8839 0.399902 29.6807C0.399902 34.4092 2.19674 38.5703 5.60126 41.6911V68.0762C5.60126 72.2373 9.00579 75.9255 13.4506 75.9255H70.0981C74.2592 75.9255 77.9475 72.521 77.9475 68.0762V42.7314C81.6357 38.854 84 34.1255 84 29.2079ZM70.0981 69.1165H13.4506C12.4103 69.1165 11.8429 68.3599 11.8429 67.5088V44.8119C13.4506 45.3794 15.2474 45.5685 17.328 45.5685C22.2456 45.5685 26.6904 43.488 29.9058 39.6106C33.0266 43.2988 37.4714 45.3794 42.4836 45.3794C47.4959 45.3794 51.8461 43.2988 55.0615 39.4214C58.1823 43.1097 62.9108 45.3794 67.8285 45.3794C69.4362 45.3794 70.6656 45.0956 71.9895 44.8119V67.3196C71.7058 68.3599 70.9493 69.1165 70.0981 69.1165ZM72.4624 38.2866C71.1384 39.0432 69.3416 39.3269 67.5447 39.3269C63.8565 39.3269 60.452 37.53 58.6551 34.4092C58.3714 34.1255 58.3714 33.6527 57.8986 33.0852C57.3312 32.5178 56.5746 31.7613 55.0615 31.7613C53.7375 31.7613 52.6972 32.3287 52.2244 33.0852C51.657 33.6527 51.657 33.8418 51.4678 34.4092C49.671 37.53 46.2665 39.3269 42.5782 39.3269C38.89 39.3269 35.4855 37.53 33.6886 34.4092C33.4049 34.1255 33.4049 33.6527 32.9321 33.3689C31.6081 31.7613 28.2035 31.7613 27.1633 33.3689C26.5958 33.9364 26.4067 34.4092 26.4067 34.6929C24.6099 37.8137 21.2053 39.6106 17.5171 39.6106C15.7203 39.6106 13.8289 39.3269 12.5995 38.5703C9.19493 36.7735 7.11439 33.0852 7.11439 29.2079C7.11439 28.1676 7.3981 26.8436 7.68181 25.8033V25.5196L15.2474 7.74042C15.5311 7.173 15.8148 5.94359 18.0845 5.94359H67.5447C68.585 5.94359 70.1927 6.2273 70.6656 7.74042L77.7583 25.2359V25.5196C78.042 26.5599 78.3258 27.8839 78.3258 28.9241C77.9475 32.8015 75.8669 36.4898 72.4624 38.2866Z" fill="white"/>
</svg>
