<svg width="781" height="52" viewBox="0 0 781 52" fill="none" xmlns="http://www.w3.org/2000/svg">
<rect x="159.242" y="0.950684" width="35.4247" height="35.4247" transform="rotate(45 159.242 0.950684)" fill="#D9D9D9"/>
<rect x="491.145" y="0.950684" width="35.4247" height="35.4247" transform="rotate(45 491.145 0.950684)" fill="#D9D9D9"/>
<rect x="25.0488" y="0.950684" width="35.4247" height="35.4247" transform="rotate(45 25.0488 0.950684)" fill="#D9D9D9"/>
<rect x="356.952" y="0.950684" width="35.4247" height="35.4247" transform="rotate(45 356.952 0.950684)" fill="#D9D9D9"/>
<rect x="226.338" y="0.950684" width="35.4247" height="35.4247" transform="rotate(45 226.338 0.950684)" fill="#D9D9D9"/>
<rect x="558.24" y="0.950684" width="35.4247" height="35.4247" transform="rotate(45 558.24 0.950684)" fill="#D9D9D9"/>
<rect x="688.854" y="0.950684" width="35.4247" height="35.4247" transform="rotate(45 688.854 0.950684)" fill="#D9D9D9"/>
<rect x="92.1455" y="0.950684" width="35.4247" height="35.4247" transform="rotate(45 92.1455 0.950684)" fill="#D9D9D9"/>
<rect x="424.048" y="0.950684" width="35.4247" height="35.4247" transform="rotate(45 424.048 0.950684)" fill="#D9D9D9"/>
<rect x="293.435" y="0.950684" width="35.4247" height="35.4247" transform="rotate(45 293.435 0.950684)" fill="#D9D9D9"/>
<rect x="625.337" y="0.950684" width="35.4247" height="35.4247" transform="rotate(45 625.337 0.950684)" fill="#D9D9D9"/>
<rect x="755.951" y="0.950684" width="35.4247" height="35.4247" transform="rotate(45 755.951 0.950684)" fill="#D9D9D9"/>
</svg>
