<svg width="202" height="200" viewBox="0 0 202 200" fill="none" xmlns="http://www.w3.org/2000/svg">
<path fill-rule="evenodd" clip-rule="evenodd" d="M63.3993 52.8566C64.2703 52.6846 65.0158 52.1208 65.4186 51.3296L75.1606 32.1938C75.864 30.812 77.5357 30.2281 78.9361 30.8751L98.36 39.8495C99.1604 40.2193 100.09 40.1981 100.879 39.792L119.866 30.0217C121.242 29.3134 122.924 29.8149 123.671 31.156L134.06 49.8169C134.485 50.5815 135.241 51.1057 136.11 51.2387L157.46 54.5085C158.989 54.7426 160.044 56.1473 159.844 57.6807L157.074 78.8636C156.959 79.7421 157.258 80.6207 157.884 81.2429L172.891 96.1689C173.98 97.2523 174.005 99.0092 172.948 100.141L158.342 115.783C157.736 116.432 157.462 117.321 157.6 118.191L160.944 139.326C161.185 140.849 160.167 142.299 158.646 142.599L137.562 146.763C136.691 146.935 135.946 147.499 135.543 148.29L125.793 167.442C125.089 168.824 123.418 169.408 122.017 168.761L102.593 159.786C101.793 159.416 100.863 159.438 100.074 159.844L81.0449 169.636C79.6675 170.345 77.9839 169.842 77.2383 168.499L66.8812 149.842C66.4559 149.076 65.6993 148.551 64.8296 148.418L43.7537 145.19C42.2318 144.957 41.1776 143.563 41.368 142.035L44.004 120.877C44.1127 120.004 43.8133 119.133 43.192 118.515L28.0627 103.467C26.9735 102.383 26.9482 100.626 28.0055 99.4942L42.6365 83.8258C43.2422 83.1772 43.516 82.2883 43.3782 81.4175L40.036 60.2903C39.7949 58.7667 40.8121 57.3173 42.3333 57.0169L63.3993 52.8566Z" fill="#3D3D3D"/>
</svg>
