<svg width="154" height="114" viewBox="0 0 154 114" fill="none" xmlns="http://www.w3.org/2000/svg">
<path d="M11.6519 20.28C12.1953 20.7447 12.8867 21 13.6017 21H140.398C141.113 21 141.805 20.7447 142.348 20.28L151.287 12.6361C152.703 11.425 152.684 9.2292 151.247 8.04273L142.338 0.686644C141.8 0.242786 141.125 0 140.428 0H13.5723C12.8752 0 12.1998 0.242786 11.6622 0.686642L2.75299 8.04273C1.31599 9.2292 1.29703 11.425 2.71329 12.6361L11.6519 20.28Z" fill="white"/>
<path d="M11.6519 112.447C12.1953 112.911 12.8867 113.167 13.6017 113.167H140.398C141.113 113.167 141.805 112.911 142.348 112.447L151.287 104.803C152.703 103.591 152.684 101.396 151.247 100.209L142.338 92.8531C141.8 92.4093 141.125 92.1665 140.428 92.1665H13.5723C12.8752 92.1665 12.1998 92.4093 11.6622 92.8531L2.75299 100.209C1.31599 101.396 1.29703 103.591 2.71329 104.803L11.6519 112.447Z" fill="white"/>
<path d="M11.6519 66.9465C12.1953 67.4112 12.8867 67.6665 13.6017 67.6665H140.398C141.113 67.6665 141.805 67.4112 142.348 66.9465L151.287 59.3026C152.703 58.0915 152.684 55.8957 151.247 54.7092L142.338 47.3531C141.8 46.9093 141.125 46.6665 140.428 46.6665H13.5723C12.8752 46.6665 12.1998 46.9093 11.6622 47.3531L2.75299 54.7092C1.31599 55.8957 1.29703 58.0915 2.71329 59.3026L11.6519 66.9465Z" fill="white"/>
</svg>
