<svg width="56" height="85" viewBox="0 0 56 85" fill="none" xmlns="http://www.w3.org/2000/svg">
<rect x="13.697" y="30.4395" width="20.0866" height="20.006" rx="6" transform="rotate(-45 13.697 30.4395)" stroke="black" stroke-width="4"/>
<path fill-rule="evenodd" clip-rule="evenodd" d="M30.9277 5.22048C28.9722 3.21702 25.7096 3.32873 23.8968 5.4612L4.92648 26.6001C3.65723 28.0932 3.44069 30.2105 4.3816 31.9279L23.9124 78.7473C25.7135 82.0348 30.4513 82.0348 32.2524 78.7473L51.6183 32.229C52.6167 30.4066 52.3068 28.1488 50.8541 26.6604L30.9277 5.22048ZM20.9967 3.01347C24.2598 -0.824985 30.1324 -1.02605 33.6523 2.58016L53.5787 24.0201C56.1936 26.6991 56.7513 30.7633 54.9543 34.0435L35.5884 80.5619C32.3465 86.4794 23.8183 86.4794 20.5764 80.5619L1.04561 33.7424C-0.648025 30.651 -0.258256 26.8399 2.0264 24.1524L20.9967 3.01347Z" fill="black"/>
</svg>
