<svg width="90" height="91" viewBox="0 0 90 91" fill="none" xmlns="http://www.w3.org/2000/svg">
<path d="M72.2194 87H17.8193C9.17373 87 3.05468 78.7233 4.12057 68.9886L9.05119 33.4788C9.88021 25.9118 16.3546 20 23.5 20H67.5218C74.667 20 81.1416 25.9118 81.9703 33.4788L85.8787 68.9886C86.9448 78.7233 80.8652 87 72.18 87H72.2194Z" stroke="white" stroke-width="7" stroke-linecap="round" stroke-linejoin="round"/>
<path d="M35.0734 5.7027L31.8162 15.2027C30.9261 17.799 32.8554 20.5 35.6 20.5H55.1103C58.0637 20.5 59.9987 17.4091 58.7083 14.7524L54.094 5.25238C53.4248 3.87464 52.0276 3 50.496 3H38.8571C37.148 3 35.6277 4.08594 35.0734 5.7027Z" stroke="white" stroke-width="6"/>
</svg>
