<svg width="94" height="94" viewBox="0 0 94 94" fill="none" xmlns="http://www.w3.org/2000/svg">
<path d="M89.8333 46.9167C89.8333 52.3464 82.6187 56.214 80.6847 60.9001C78.7507 65.5858 80.9078 73.6186 77.2634 77.2634C73.6186 80.9078 65.7345 78.6766 60.9001 80.6847C56.0653 82.6928 52.2719 89.8333 46.9167 89.8333C41.5615 89.8333 37.6193 82.6187 32.9334 80.6847C28.2475 78.7507 20.2146 80.9078 16.5701 77.2634C12.9255 73.6186 15.1569 65.7345 13.1486 60.9001C11.1404 56.0653 4 52.2719 4 46.9167C4 41.5615 11.2148 37.6193 13.1486 32.9334C15.0825 28.2475 12.9255 20.2146 16.5701 16.5701C20.2146 12.9255 28.0988 15.1569 32.9334 13.1486C37.768 11.1404 41.5615 4 46.9167 4C52.2719 4 56.214 11.2148 60.9001 13.1486C65.5858 15.0825 73.6186 12.9255 77.2634 16.5701C80.9078 20.2146 78.6766 28.0988 80.6847 32.9334C82.6928 37.768 89.8333 41.5615 89.8333 46.9167Z" stroke="white" stroke-width="8" stroke-linecap="round" stroke-linejoin="round"/>
<rect x="46.9941" y="29.0326" width="24.0801" height="24.0801" rx="7.5" transform="rotate(45 46.9941 29.0326)" stroke="white" stroke-width="5"/>
</svg>
