<svg width="101" height="101" viewBox="0 0 101 101" fill="none" xmlns="http://www.w3.org/2000/svg">
<path d="M50.5 0C22.6 0 0 22.6 0 50.4771C0 78.3542 22.6 100.954 50.5 100.954C78.3771 100.954 101 78.3542 101 50.4771C100.977 22.6 78.3771 0 50.5 0ZM81.3598 70.3237C81.3598 71.7004 80.2356 72.8476 78.836 72.8476H22.164C20.7874 72.8476 19.6402 71.7233 19.6402 70.3237V30.6533C19.6402 29.2767 20.7644 28.1295 22.164 28.1295H78.836C80.2126 28.1295 81.3598 29.2537 81.3598 30.6533V70.3237Z" fill="black"/>
<path d="M24.6649 37.1924V65.2071L40.5422 51.0506L24.6649 37.1924Z" fill="black"/>
<path d="M72.1134 34.1641H28.8638L50.4771 53.0471L72.1134 34.1641Z" fill="black"/>
<path d="M56.6949 54.3086L52.1519 58.2779C51.2112 59.1039 49.7887 59.1039 48.848 58.2779L44.3968 54.3774L29.4373 67.708H71.7462L56.6949 54.3086Z" fill="black"/>
<path d="M76.3122 65.0695V37.1694L60.5037 50.9818L76.3122 65.0695Z" fill="black"/>
</svg>
