<svg width="110" height="83" viewBox="0 0 110 83" fill="none" xmlns="http://www.w3.org/2000/svg">
<path d="M7.49491 82.4775H24.983V40.0063L0 21.269V75.0256C0 79.1608 3.35979 82.4775 7.49491 82.4775Z" fill="#7D7D7D"/>
<path d="M84.9855 82.4775H102.474C106.609 82.4775 109.969 79.1177 109.969 74.9826V21.269L84.9855 40.0063" fill="#7C7C7C"/>
<path d="M84.9855 7.52819V40.0061L109.969 21.2689V11.2756C109.969 2.01469 99.3723 -3.28343 91.9635 2.27314" fill="#BBBBBB"/>
<path d="M24.983 40.0063V7.52832L54.9627 30.0131L84.9423 7.52832V40.0063L54.9627 62.491" fill="#747474"/>
<path d="M0 11.2757V21.2689L24.983 40.0062V7.52822L18.005 2.27317C10.5532 -3.2834 0 1.97165 0 11.2757Z" fill="#3C2E2E"/>
</svg>
