<svg width="101" height="101" viewBox="0 0 101 101" fill="none" xmlns="http://www.w3.org/2000/svg">
<path d="M50.5 61.1234C56.3674 61.1234 61.1237 56.367 61.1237 50.4997C61.1237 44.6324 56.3674 39.876 50.5 39.876C44.6327 39.876 39.8763 44.6324 39.8763 50.4997C39.8763 56.367 44.6327 61.1234 50.5 61.1234Z" fill="#010201"/>
<path d="M75.2637 31.7215C74.6652 30.2252 73.9919 29.1778 72.8696 28.0556C71.7474 26.9334 70.7 26.26 69.2037 25.6615C68.0815 25.2126 66.4356 24.6889 63.2933 24.5393C59.9267 24.3896 58.9541 24.3896 50.4252 24.3896C41.9711 24.3896 40.9237 24.3896 37.557 24.5393C34.4896 24.6889 32.7689 25.2126 31.6467 25.6615C30.1504 26.26 29.103 26.9334 27.9807 28.0556C26.8585 29.1778 26.1852 30.2252 25.5867 31.7215C25.1378 32.8437 24.6141 34.4896 24.4644 37.6319C24.3148 40.9985 24.3148 41.9711 24.3148 50.5C24.3148 58.9541 24.3148 60.0015 24.4644 63.3682C24.6141 66.4356 25.1378 68.1563 25.5867 69.2785C26.1852 70.7748 26.8585 71.8222 27.9807 72.9445C29.103 74.0667 30.1504 74.74 31.6467 75.3385C32.7689 75.7874 34.4148 76.3111 37.557 76.4608C40.9237 76.6104 41.8963 76.6104 50.4252 76.6104C58.9541 76.6104 59.9267 76.6104 63.2933 76.4608C66.3607 76.3111 68.0815 75.7874 69.2037 75.3385C70.7 74.74 71.7474 74.0667 72.8696 72.9445C73.9919 71.8222 74.6652 70.7748 75.2637 69.2785C75.7126 68.1563 76.2363 66.5104 76.3859 63.3682C76.5356 60.0015 76.5356 59.0289 76.5356 50.5C76.5356 42.0459 76.5356 40.9985 76.3859 37.6319C76.2363 34.5645 75.7126 32.8437 75.2637 31.7215ZM50.5 66.8097C41.4474 66.8097 34.1904 59.4778 34.1904 50.5C34.1904 41.4474 41.5222 34.1904 50.5 34.1904C59.4778 34.1904 66.8096 41.5222 66.8096 50.5C66.8096 59.5526 59.5526 66.8097 50.5 66.8097ZM67.483 37.3326C65.3881 37.3326 63.6674 35.6119 63.6674 33.5171C63.6674 31.4222 65.3881 29.7015 67.483 29.7015C69.5778 29.7015 71.2985 31.4222 71.2985 33.5171C71.2985 35.6119 69.5778 37.3326 67.483 37.3326Z" fill="#010201"/>
<path d="M50.5 0C22.5941 0 0 22.5941 0 50.5C0 78.4059 22.5941 101 50.5 101C78.4059 101 101 78.4059 101 50.5C101 22.5941 78.4059 0 50.5 0ZM82.0718 63.5926C81.9222 66.9593 81.3985 69.2785 80.5756 71.2985C79.7526 73.3933 78.7052 75.1889 76.9096 76.9096C75.1141 78.7052 73.3933 79.7526 71.2985 80.5756C69.2785 81.3985 66.9593 81.9222 63.5926 82.0718C60.2259 82.2215 59.1037 82.2963 50.5 82.2963C41.8963 82.2963 40.7741 82.2963 37.4074 82.0718C34.0407 81.9222 31.7215 81.3985 29.7015 80.5756C27.6067 79.7526 25.8111 78.7052 24.0904 76.9096C22.2948 75.1141 21.2474 73.3933 20.4244 71.2985C19.6015 69.2785 19.0778 66.9593 18.9281 63.5926C18.7037 60.2259 18.7037 59.1037 18.7037 50.5C18.7037 41.8963 18.7037 40.7741 18.9281 37.4074C19.0778 34.0407 19.6015 31.7215 20.4244 29.7015C21.2474 27.6067 22.2948 25.8111 24.0904 24.0904C25.8859 22.2948 27.6067 21.2474 29.7015 20.4244C31.7215 19.6015 34.0407 19.0778 37.4074 18.9281C40.7741 18.7037 41.8963 18.7037 50.5 18.7037C59.1037 18.7037 60.2259 18.7037 63.5926 18.9281C66.9593 19.0778 69.2785 19.6015 71.2985 20.4244C73.3933 21.2474 75.1889 22.2948 76.9096 24.0904C78.7052 25.8859 79.7526 27.6067 80.5756 29.7015C81.3985 31.7215 81.9222 34.0407 82.0718 37.4074C82.2215 40.7741 82.2963 41.8963 82.2963 50.5C82.2963 59.1037 82.2963 60.2259 82.0718 63.5926Z" fill="#010201"/>
</svg>
