<svg width="100" height="100" viewBox="0 0 100 100" fill="none" xmlns="http://www.w3.org/2000/svg">
<path d="M50 0C22.381 0 0 22.381 0 50C0 77.619 22.381 100 50 100C77.619 100 100 77.619 100 50C100 22.381 77.619 0 50 0ZM76.756 64.494C75.7738 66.6964 74.0179 70.7738 73.3036 72.5595C73.1548 72.9464 72.9464 73.2738 72.619 73.5417C65.0298 80.119 49.9405 72.1131 38.4226 60.5655C26.875 49.0179 18.869 33.9286 25.4464 26.3393C25.7143 26.0417 26.0714 25.8036 26.4286 25.6548C28.2143 24.9405 32.2619 23.1845 34.494 22.2024C35.3571 21.8155 36.369 22.1429 36.8452 22.9464L43.6012 34.3155C43.9286 34.881 43.9583 35.5655 43.631 36.1607L39.4345 43.9583C39.0476 44.6726 39.1667 45.5655 39.7619 46.1607L46.2798 52.6786L52.7976 59.1964C53.3929 59.7917 54.2857 59.9107 55 59.5238L62.7976 55.3571C63.3631 55.0595 64.0774 55.0595 64.6429 55.3869L76.0119 62.1429C76.8155 62.619 77.1429 63.631 76.756 64.494Z" fill="black"/>
</svg>
