<svg width="98" height="98" viewBox="0 0 98 98" fill="none" xmlns="http://www.w3.org/2000/svg">
<circle cx="49" cy="49" r="49" fill="black"/>
<path fill-rule="evenodd" clip-rule="evenodd" d="M66.6435 67.6703H31.3784C29.4481 67.6703 28.1117 65.8142 28.7799 64.1066C32.1208 56.1627 39.9163 51.5596 48.9738 51.5596C58.0314 51.5596 65.8269 56.0884 69.1678 64.1066C69.9102 65.8142 68.5738 67.6703 66.6435 67.6703ZM38.0602 35.449C38.0602 29.5096 42.9602 24.6838 49.0481 24.6838C55.0617 24.6838 60.036 29.5096 60.036 35.449C60.036 41.3884 55.136 46.2141 49.0481 46.2141C42.9602 46.2141 38.0602 41.3884 38.0602 35.449ZM75.7754 66.7051C73.7708 57.7218 67.5345 51.0399 59.3678 47.996C63.7481 44.5808 66.2723 39.0127 65.3072 32.9248C64.1935 25.8718 58.2542 20.2293 51.0526 19.4126C41.1041 18.299 32.6405 25.8717 32.6405 35.449C32.6405 40.4975 35.0163 45.0263 38.8026 47.996C30.5617 51.0399 24.3996 57.6475 22.3951 66.7051C21.6526 69.9718 24.3996 73.0898 27.8148 73.0898H70.5042C73.7708 73.0156 76.5178 69.9718 75.7754 66.7051Z" fill="white"/>
</svg>
