<svg width="112" height="122" viewBox="0 0 112 122" fill="none" xmlns="http://www.w3.org/2000/svg">
<path fill-rule="evenodd" clip-rule="evenodd" d="M19.8746 16.1991C11.8554 16.1991 5.39186 23.3707 5.39186 32.2684V81.5043C5.39186 90.4019 11.8554 97.5736 19.8746 97.5736H26.0148C27.2276 97.5736 28.2108 98.6645 28.2108 100.01V113.933L47.6172 98.0494C47.9948 97.7403 48.4516 97.5736 48.9207 97.5736H81.7992C89.8184 97.5736 96.282 90.4019 96.282 81.5043V49.0347C96.282 47.6891 97.2652 46.5982 98.478 46.5982C99.6907 46.5982 100.674 47.6891 100.674 49.0347V81.5043C100.674 93.0932 92.2439 102.447 81.7992 102.447H49.643L27.3184 120.718C26.6515 121.264 25.7646 121.347 25.025 120.932C24.2853 120.518 23.8189 119.677 23.8189 118.757V102.447H19.8746C9.42979 102.447 1 93.0932 1 81.5043V32.2684C1 20.6794 9.4298 11.3262 19.8746 11.3262H63.9446C65.1573 11.3262 66.1405 12.417 66.1405 13.7627C66.1405 15.1083 65.1573 16.1991 63.9446 16.1991H19.8746Z" fill="black" stroke="black" stroke-linecap="round" stroke-linejoin="round"/>
<path d="M105.524 15.3446L96.6558 6.476C92.6886 2.50888 86.2567 2.50888 82.2896 6.476L73.421 15.3446C69.4538 19.3117 69.4538 25.7437 73.421 29.7108L82.2896 38.5794C86.2567 42.5465 92.6886 42.5465 96.6558 38.5794L105.524 29.7108C109.491 25.7437 109.491 19.3117 105.524 15.3446ZM85.4801 9.66658C87.6851 7.46157 91.2602 7.46157 93.4652 9.66658L102.334 18.5352C104.539 20.7402 104.539 24.3152 102.334 26.5202L93.4652 35.3888C91.2602 37.5938 87.6851 37.5938 85.4801 35.3888L76.6115 26.5202C74.4065 24.3152 74.4065 20.7402 76.6115 18.5352L85.4801 9.66658Z" fill="black" stroke="black"/>
</svg>
