<svg width="61" height="83" viewBox="0 0 61 83" fill="none" xmlns="http://www.w3.org/2000/svg">
<path d="M53.5429 9.69781H43.0255V7.3758C43.0255 3.27813 39.7474 0 35.6497 0H25.1324C21.0347 0 17.7566 3.27813 17.7566 7.3758V9.69781H7.23921C3.27813 9.69781 0 12.9759 0 16.937V21.0347C0 24.0396 1.77566 26.4982 4.37084 27.591L6.55627 74.8507C6.82945 79.3582 10.3808 82.7729 14.8882 82.7729H45.6207C50.1281 82.7729 53.816 79.2216 53.9526 74.8507L56.4112 27.4544C59.0064 26.3617 60.7821 23.7665 60.7821 20.8981V16.8004C60.7821 12.9759 57.5039 9.69781 53.5429 9.69781ZM24.0396 7.3758C24.0396 6.69286 24.586 6.1465 25.2689 6.1465H35.7863C36.4692 6.1465 37.0156 6.69286 37.0156 7.3758V9.69781H24.1762V7.3758H24.0396ZM6.28309 16.937C6.28309 16.3907 6.69286 15.8443 7.3758 15.8443H53.5429C54.0892 15.8443 54.6356 16.2541 54.6356 16.937V21.0347C54.6356 21.581 54.2258 22.1274 53.5429 22.1274H7.3758C6.82945 22.1274 6.28309 21.7176 6.28309 21.0347V16.937ZM45.7573 76.6264H15.1614C13.9321 76.6264 12.9759 75.6702 12.9759 74.5775L10.7905 28.2739H50.2647L48.0793 74.5775C47.9427 75.6702 46.9866 76.6264 45.7573 76.6264Z" fill="#3D3D3D"/>
<path d="M30.4599 41.9336C28.8208 41.9336 27.3184 43.2995 27.3184 45.0751V62.4219C27.3184 64.061 28.6842 65.5635 30.4599 65.5635C32.099 65.5635 33.6014 64.1976 33.6014 62.4219V45.0751C33.6014 43.2995 32.099 41.9336 30.4599 41.9336Z" fill="#3D3D3D"/>
<path d="M41.3854 44.6646C39.6097 44.5281 38.2438 45.7574 38.1072 47.533L37.2877 59.5528C37.1511 61.1919 38.3804 62.6944 40.1561 62.831C40.2926 62.831 40.2926 62.831 40.4292 62.831C42.0683 62.831 43.4342 61.6017 43.4342 59.9626L44.2537 47.9428C44.2537 46.1671 43.0244 44.8012 41.3854 44.6646Z" fill="#3D3D3D"/>
<path d="M19.3973 44.6646C17.7583 44.8012 16.3924 46.3037 16.529 47.9428L17.4851 59.9626C17.6217 61.6017 18.9876 62.831 20.49 62.831C20.6266 62.831 20.6266 62.831 20.7632 62.831C22.4023 62.6944 23.7682 61.1919 23.6316 59.5528L22.6755 47.533C22.6755 45.7574 21.173 44.5281 19.3973 44.6646Z" fill="#3D3D3D"/>
</svg>
