<svg width="971" height="525" viewBox="0 0 971 525" fill="none" xmlns="http://www.w3.org/2000/svg">
<g filter="url(#filter0_d_30_18)">
<path d="M177.67 430.248C177.67 405.687 176.25 380.924 178.076 356.363C180.917 314.956 210.338 281.261 249.498 271.721C286.832 262.587 328.021 279.028 349.935 313.332C356.022 322.872 359.065 323.887 369.616 318.812C431.299 288.365 504.141 333.427 505.561 402.237C506.17 434.104 505.967 465.972 506.778 497.84C506.981 507.38 504.952 511.845 494.401 510.831C482.43 509.613 466.807 514.484 459.299 508.395C451.386 502.102 457.067 485.661 456.864 473.685C456.458 449.937 457.067 425.985 456.661 402.237C456.053 376.458 436.371 355.348 412.834 354.536C388.08 353.725 368.399 372.196 367.384 397.771C366.776 415.227 366.978 432.886 367.384 450.343C367.587 458.259 365.558 461.101 357.036 461.304C317.47 462.318 317.47 462.521 317.47 423.549C317.47 402.846 317.876 382.142 317.267 361.641C316.253 324.699 285.412 305.01 251.527 319.624C235.295 326.525 226.976 339.11 226.57 356.363C225.961 391.479 225.961 426.391 225.758 461.507C225.758 474.497 225.555 487.488 225.758 500.682C225.961 507.583 223.729 510.425 216.425 510.019C206.482 509.613 196.54 509.41 186.801 510.019C179.091 510.425 178.076 506.974 178.076 500.479C178.279 477.136 178.279 453.793 178.279 430.451C178.076 430.248 177.873 430.248 177.67 430.248Z" fill="white"/>
<path d="M732.812 421.318C732.812 396.148 732.609 370.979 732.812 346.012C733.015 329.571 727.536 315.971 712.927 307.446C708.464 304.808 706.637 301.966 706.84 296.688C707.246 286.336 707.449 275.985 706.84 265.836C706.232 256.499 710.087 256.904 717.188 258.934C757.363 271.113 783.538 307.649 784.349 354.132C784.552 362.251 784.755 370.37 784.349 378.286C783.943 386.405 786.987 387.014 794.089 384.781C814.987 378.286 826.959 363.469 827.365 341.344C827.567 328.759 827.77 316.174 827.365 303.59C827.162 296.688 829.394 294.456 836.495 294.253C875.25 292.629 874.438 292.426 875.655 330.18C876.67 360.221 868.757 385.999 846.843 406.703C841.974 411.372 844.408 413.604 847.858 417.258C863.481 433.293 870.989 453.185 873.626 475.107C874.641 482.82 872.612 486.068 864.699 485.256C861.655 484.85 858.409 485.256 855.365 485.256C847.655 485.256 839.336 487.083 832.64 484.647C824.93 481.805 827.973 471.454 824.93 464.755C818.843 451.359 809.915 441.616 795.915 436.338C788.001 433.293 784.349 434.714 784.552 444.254C784.958 463.131 784.349 482.008 784.755 500.885C784.958 508.193 783.132 511.44 775.016 511.034C764.668 510.426 754.32 510.02 743.972 511.034C733.015 512.252 731.595 507.381 731.797 498.044C734.029 472.874 732.812 446.893 732.812 421.318C733.015 421.318 732.609 421.318 732.812 421.318Z" fill="white"/>
<path d="M319.093 112.992C319.093 99.5954 319.296 85.9958 319.093 72.5991C318.89 66.5098 320.514 63.4651 327.21 63.6681C336.543 64.074 346.079 64.074 355.616 63.6681C361.703 63.4651 364.544 65.0889 364.341 71.9902C363.529 100.61 364.138 129.433 362.312 158.053C359.268 207.174 318.89 244.523 270.803 244.32C222.309 244.117 181.525 205.957 178.888 156.633C177.467 128.418 178.482 100.001 178.279 71.7872C178.279 66.5098 179.293 64.074 185.583 63.4651C221.497 60.2174 221.497 60.0144 221.497 95.5358C221.497 112.18 221.294 128.824 221.497 145.469C222.106 176.727 243.208 198.243 272.02 198.649C294.542 199.055 321.934 174.698 319.093 145.266C318.282 134.711 319.093 123.75 319.093 112.992Z" fill="white"/>
<path d="M383.819 65.0883C400.052 70.1628 403.907 82.7475 408.573 96.1442C425.414 78.8909 445.299 68.539 468.43 64.4794C476.343 63.0585 480.604 64.2764 479.589 73.4105C479.184 76.4552 479.386 79.7028 479.589 82.7475C480.807 98.3769 481.213 110.759 459.705 114.615C442.661 117.66 434.748 133.492 434.951 151.76C435.154 179.163 434.951 206.565 435.56 233.764C435.762 242.086 433.53 244.928 425.009 244.319C414.661 243.507 404.313 243.71 393.964 244.319C386.863 244.725 383.616 243.101 383.616 234.982C384.022 178.757 383.819 122.734 383.819 65.0883Z" fill="white"/>
<path d="M908.323 417.866C908.323 391.275 908.729 364.888 908.12 338.501C907.917 328.149 911.163 325.713 921.106 325.916C957.425 326.119 957.425 325.713 957.425 362.249C957.425 407.108 957.222 451.966 957.628 497.028C957.628 506.771 956.411 512.454 944.642 510.83C933.28 509.409 918.265 515.499 910.96 508.395C903.453 501.087 908.728 486.27 908.526 474.7C907.917 455.62 908.323 436.743 908.323 417.866Z" fill="white"/>
<path d="M930.439 294.861C916.236 293.643 905.888 281.464 907.105 267.053C908.12 253.859 920.903 243.304 934.091 244.522C947.483 245.74 957.628 257.716 956.816 271.315C955.802 284.915 943.628 295.876 930.439 294.861Z" fill="white"/>
<path d="M164.076 238.839C159.003 235.186 157.786 227.269 155.96 220.774C151.902 206.16 145.206 192.966 134.046 182.817C127.756 177.133 127.553 173.886 133.64 167.39C166.916 131.666 168.54 77.8766 138.307 40.5284C107.872 3.18026 55.3199 -5.95381 12.9132 19.0126C8.44935 21.6514 5.40581 24.0871 5.40581 30.1765C5.40581 110.556 5.40581 190.936 5 271.316C5 278.217 7.02903 280.856 14.1306 280.653C24.8845 280.247 35.8412 280.044 46.5951 280.653C55.117 281.262 57.3489 278.217 57.146 270.098C56.5373 249.8 57.7547 229.705 56.7402 209.407C56.1315 198.243 60.5953 196.822 69.9289 197.837C90.2191 200.273 106.654 214.685 113.147 236.809C122.886 269.692 144.191 291.411 178.279 303.793C178.279 296.891 178.279 292.02 178.279 286.945C178.279 269.895 181.728 251.627 164.076 238.839ZM65.8708 151.761C58.3634 152.573 56.7402 150.137 56.7402 143.236C56.9431 115.022 57.146 86.8077 56.7402 58.5936C56.7402 51.8953 58.9721 50.2714 65.2621 50.4744C92.0453 51.2863 113.959 73.4111 113.756 99.7984C113.35 128.215 94.683 148.31 65.8708 151.761Z" fill="white"/>
<path d="M675.188 147.093C670.521 101.828 632.984 66.104 588.751 63.8712C543.91 61.6384 503.735 92.8972 493.995 137.35C488.923 160.083 492.981 183.02 491.155 207.378C491.155 223.819 491.358 241.681 490.952 259.543C490.749 266.444 492.778 269.083 500.083 268.677C510.836 268.068 521.59 268.068 532.344 268.677C540.663 269.286 542.083 265.43 541.881 258.325C541.475 245.741 542.083 233.156 541.678 220.571C541.475 213.873 543.301 211.031 550.605 211.234C573.533 211.64 596.461 211.64 619.389 211.234C625.679 211.234 627.708 213.061 628.114 219.556C629.332 244.32 629.534 244.117 653.883 244.117C658.752 244.117 663.825 243.914 668.695 244.117C673.97 244.32 677.217 243.102 677.014 236.809C675.796 207.175 678.434 177.134 675.188 147.093ZM620.201 160.489C608.636 160.489 596.867 160.489 585.302 160.489C574.142 160.489 562.779 159.88 551.62 160.692C542.489 161.301 541.272 157.445 541.678 149.731C542.489 124.359 559.127 108.73 585.302 109.339C609.853 109.947 627.708 129.433 627.505 154.197C627.303 160.286 624.665 160.489 620.201 160.489Z" fill="white"/>
<path d="M709.478 398.38C707.043 349.056 667.68 309.881 620.81 308.663C571.707 307.445 531.127 342.967 526.054 393.103C524.228 411.777 525.851 430.654 525.851 449.531C525.445 449.531 526.257 449.531 525.851 449.531C525.851 456.635 526.257 464.348 526.46 471.656C526.663 484.24 522.199 502.508 526.663 507.583C534.17 516.108 551.214 509.207 563.997 510.425C572.519 511.236 576.171 508.801 575.562 499.464C574.751 488.3 575.562 476.933 575.359 465.769C575.157 459.477 576.171 456.026 583.881 456.229C607.215 456.635 630.752 456.635 654.086 456.229C659.767 456.229 661.593 457.65 661.999 463.739C663.419 486.067 663.622 486.067 685.941 486.067C691.42 486.067 696.695 485.661 702.174 486.067C708.667 486.676 710.696 484.037 710.696 477.745C709.884 451.358 710.898 424.97 709.478 398.38ZM653.274 405.281C641.506 405.281 629.94 405.281 618.172 405.281C606.404 405.281 594.838 404.875 583.07 405.484C576.374 405.687 574.751 403.049 574.548 396.756C573.736 370.775 590.983 354.334 618.984 354.334C645.564 354.537 659.564 375.443 660.984 399.395C661.39 405.89 657.332 405.281 653.274 405.281Z" fill="white"/>
<path d="M871.8 236.403C863.684 229.908 863.278 225.036 869.365 215.699C891.685 181.599 895.946 145.265 874.032 109.338C852.93 74.8315 820.669 60.0141 780.291 63.4647C733.624 67.3213 695.072 109.135 694.463 156.835C693.855 207.174 729.768 250.206 777.653 255.077C814.785 258.731 851.916 255.686 891.685 256.701C883.772 248.379 878.293 241.68 871.8 236.403ZM792.465 209.407C765.073 209.61 742.551 187.485 742.145 160.286C741.74 132.478 764.465 109.541 792.262 109.744C819.451 109.744 841.974 132.478 841.974 159.474C841.974 186.876 819.654 209.204 792.465 209.407Z" fill="white"/>
</g>
<defs>
<filter id="filter0_d_30_18" x="0" y="0" width="970.628" height="524.916" filterUnits="userSpaceOnUse" color-interpolation-filters="sRGB">
<feFlood flood-opacity="0" result="BackgroundImageFix"/>
<feColorMatrix in="SourceAlpha" type="matrix" values="0 0 0 0 0 0 0 0 0 0 0 0 0 0 0 0 0 0 127 0" result="hardAlpha"/>
<feOffset dx="4" dy="4"/>
<feGaussianBlur stdDeviation="4.5"/>
<feComposite in2="hardAlpha" operator="out"/>
<feColorMatrix type="matrix" values="0 0 0 0 0 0 0 0 0 0 0 0 0 0 0 0 0 0 1 0"/>
<feBlend mode="normal" in2="BackgroundImageFix" result="effect1_dropShadow_30_18"/>
<feBlend mode="normal" in="SourceGraphic" in2="effect1_dropShadow_30_18" result="shape"/>
</filter>
</defs>
</svg>
