<svg width="159" height="156" viewBox="0 0 159 156" fill="none" xmlns="http://www.w3.org/2000/svg">
<path d="M149.95 72.1693L149.943 72.1621L86.4334 8.88677C86.4323 8.8857 86.4313 8.88463 86.4302 8.88357C82.5798 5.03774 76.4157 5.03881 72.5666 8.88677L9.04986 72.3845C7.36832 74.0656 6 76.373 6 79.426V140.126C6 145.593 10.4105 150 15.8756 150H54.8469C61.3886 150 66.6603 144.732 66.6603 138.188V103.318C66.6603 103.316 66.6605 103.314 66.6607 103.313C66.661 103.312 66.6615 103.31 66.663 103.306C66.6644 103.303 66.6666 103.298 66.6694 103.294C66.6699 103.293 66.6704 103.293 66.6709 103.292C66.6755 103.292 66.6815 103.291 66.689 103.291H91.6938V138.404C91.6938 144.732 96.9655 150 103.292 150H142.694C148.374 150 153 145.378 153 139.695V79.426C153 76.7078 151.901 74.1194 149.95 72.1693Z" stroke="white" stroke-width="12"/>
</svg>
