<svg width="781" height="51" viewBox="0 0 781 51" fill="none" xmlns="http://www.w3.org/2000/svg">
<rect x="159.242" width="35.4247" height="35.4247" transform="rotate(45 159.242 0)" fill="#D9D9D9"/>
<rect x="491.145" width="35.4247" height="35.4247" transform="rotate(45 491.145 0)" fill="#D9D9D9"/>
<rect x="25.0488" width="35.4247" height="35.4247" transform="rotate(45 25.0488 0)" fill="#D9D9D9"/>
<rect x="356.952" width="35.4247" height="35.4247" transform="rotate(45 356.952 0)" fill="#D9D9D9"/>
<rect x="226.338" width="35.4247" height="35.4247" transform="rotate(45 226.338 0)" fill="#D9D9D9"/>
<rect x="558.24" width="35.4247" height="35.4247" transform="rotate(45 558.24 0)" fill="#D9D9D9"/>
<rect x="688.854" width="35.4247" height="35.4247" transform="rotate(45 688.854 0)" fill="#D9D9D9"/>
<rect x="92.1455" width="35.4247" height="35.4247" transform="rotate(45 92.1455 0)" fill="#D9D9D9"/>
<rect x="424.048" width="35.4247" height="35.4247" transform="rotate(45 424.048 0)" fill="#D9D9D9"/>
<rect x="293.435" width="35.4247" height="35.4247" transform="rotate(45 293.435 0)" fill="#D9D9D9"/>
<rect x="625.337" width="35.4247" height="35.4247" transform="rotate(45 625.337 0)" fill="#D9D9D9"/>
<rect x="755.951" width="35.4247" height="35.4247" transform="rotate(45 755.951 0)" fill="#D9D9D9"/>
</svg>
