<svg width="816" height="816" viewBox="0 0 816 816" fill="none" xmlns="http://www.w3.org/2000/svg">
<rect x="820.337" y="408.012" width="583.116" height="583.116" rx="30" transform="rotate(135 820.337 408.012)" stroke="black" stroke-width="16"/>
<path d="M575.703 299.61C578.801 296.461 578.76 291.396 575.61 288.297C572.461 285.199 567.396 285.24 564.297 288.39L575.703 299.61ZM339.277 515.479L333.574 521.089L339.277 515.479ZM240.297 426.277L333.574 521.089L344.979 509.868L251.703 415.056L240.297 426.277ZM357.811 521.089L575.703 299.61L564.297 288.39L346.405 509.868L357.811 521.089ZM333.574 521.089C340.234 527.859 351.15 527.859 357.811 521.089L346.405 509.868C346.013 510.266 345.371 510.266 344.979 509.868L333.574 521.089Z" fill="black"/>
</svg>
